<svg width="21" height="21" viewBox="0 0 21 21" fill="none" xmlns="http://www.w3.org/2000/svg">
<path d="M15.5 0.878906H5.5C2.74 0.878906 0.5 3.10891 0.5 5.85891V11.8389V12.8389C0.5 15.5889 2.74 17.8189 5.5 17.8189H7C7.27 17.8189 7.63 17.9989 7.8 18.2189L9.3 20.2089C9.96 21.0889 11.04 21.0889 11.7 20.2089L13.2 18.2189C13.39 17.9689 13.69 17.8189 14 17.8189H15.5C18.26 17.8189 20.5 15.5889 20.5 12.8389V5.85891C20.5 3.10891 18.26 0.878906 15.5 0.878906ZM6.5 10.8789C5.94 10.8789 5.5 10.4289 5.5 9.87891C5.5 9.32891 5.95 8.87891 6.5 8.87891C7.05 8.87891 7.5 9.32891 7.5 9.87891C7.5 10.4289 7.06 10.8789 6.5 10.8789ZM10.5 10.8789C9.94 10.8789 9.5 10.4289 9.5 9.87891C9.5 9.32891 9.95 8.87891 10.5 8.87891C11.05 8.87891 11.5 9.32891 11.5 9.87891C11.5 10.4289 11.06 10.8789 10.5 10.8789ZM14.5 10.8789C13.94 10.8789 13.5 10.4289 13.5 9.87891C13.5 9.32891 13.95 8.87891 14.5 8.87891C15.05 8.87891 15.5 9.32891 15.5 9.87891C15.5 10.4289 15.06 10.8789 14.5 10.8789Z" fill="white"/>
</svg>
