<svg width="31" height="31" viewBox="0 0 31 31" fill="none" xmlns="http://www.w3.org/2000/svg">
<path fill-rule="evenodd" clip-rule="evenodd" d="M22.3029 0.931759C24.4007 0.800645 26.4695 1.52906 28.0283 2.95675C29.456 4.51555 30.1844 6.58425 30.0678 8.69664V22.3034C30.199 24.4158 29.456 26.4845 28.0428 28.0433C26.484 29.471 24.4007 30.1994 22.3029 30.0683H8.69603C6.58362 30.1994 4.51491 29.471 2.95609 28.0433C1.52839 26.4845 0.799973 24.4158 0.931088 22.3034V8.69664C0.799973 6.58425 1.52839 4.51555 2.95609 2.95675C4.51491 1.52906 6.58362 0.800645 8.69603 0.931759H22.3029ZM14.013 22.5656L23.8175 12.732C24.7062 11.8288 24.7062 10.372 23.8175 9.48332L21.9236 7.58944C21.0204 6.68621 19.5635 6.68621 18.6603 7.58944L17.6842 8.58008C17.5385 8.72577 17.5385 8.97343 17.6842 9.11911C17.6842 9.11911 20.0006 11.4209 20.0443 11.4792C20.2046 11.654 20.3065 11.8871 20.3065 12.1493C20.3065 12.6738 19.8841 13.1108 19.345 13.1108C19.0974 13.1108 18.8643 13.0088 18.704 12.8486L16.2711 10.4303C16.1545 10.3137 15.9506 10.3137 15.834 10.4303L8.88493 17.3793C8.40417 17.8601 8.12737 18.5011 8.1128 19.1858L8.02539 22.6385C8.02539 22.8278 8.08366 23.0027 8.21478 23.1338C8.3459 23.2649 8.52072 23.3377 8.71011 23.3377H12.1337C12.833 23.3377 13.5031 23.0609 14.013 22.5656Z" fill="#FF4D67"/>
</svg>
