<svg width="18" height="15" viewBox="0 0 18 15" fill="none" xmlns="http://www.w3.org/2000/svg">
<path fill-rule="evenodd" clip-rule="evenodd" d="M7.16972 10.2104C7.69011 10.5632 8.32434 10.7765 8.99923 10.7765C10.7881 10.7765 12.2436 9.30797 12.2436 7.50304C12.2436 6.82208 12.0321 6.18215 11.6825 5.65708L10.7962 6.55134C10.9426 6.83029 11.0239 7.15846 11.0239 7.50304C11.0239 8.62702 10.1132 9.54589 8.99923 9.54589C8.65772 9.54589 8.33247 9.46385 8.05601 9.31617L7.16972 10.2104ZM14.3577 2.95789C15.5367 4.04085 16.5368 5.5012 17.2849 7.25691C17.3499 7.41279 17.3499 7.59328 17.2849 7.74096C15.5448 11.8267 12.4468 14.2715 8.99923 14.2715H8.9911C7.42178 14.2715 5.91752 13.7547 4.59214 12.8112L3.0147 14.4028C2.89273 14.5259 2.73824 14.5833 2.58375 14.5833C2.42926 14.5833 2.26663 14.5259 2.1528 14.4028C1.94952 14.1977 1.91699 13.8695 2.07962 13.6316L2.10401 13.5988L14.13 1.46472L14.13 1.46471C14.1463 1.44831 14.1625 1.4319 14.1706 1.41549L14.1706 1.41549C14.1869 1.39908 14.2032 1.38267 14.2113 1.36627L14.9756 0.595068C15.2196 0.357145 15.6017 0.357145 15.8375 0.595068C16.0815 0.832991 16.0815 1.22679 15.8375 1.46472L14.3577 2.95789ZM5.74896 7.50624C5.74896 7.71955 5.77336 7.93286 5.80588 8.12976L2.79735 11.1653C1.98424 10.2136 1.27683 9.06504 0.715779 7.74416C0.65073 7.59648 0.65073 7.41599 0.715779 7.26011C2.45585 3.1744 5.55381 0.73774 8.99329 0.73774H9.00142C10.1642 0.73774 11.2944 1.01668 12.3352 1.54176L9.61939 4.28197C9.42424 4.24915 9.21283 4.22454 9.00142 4.22454C7.20444 4.22454 5.74896 5.6931 5.74896 7.50624Z" fill="#9E9E9E"/>
</svg>
