<svg width="22" height="22" viewBox="0 0 22 22" fill="none" xmlns="http://www.w3.org/2000/svg">
<g clip-path="url(#clip0_102_72)">
<path d="M11.1411 8.16455C9.90173 8.16455 8.89697 9.16926 8.89697 10.4087C8.89697 11.6481 9.90168 12.6528 11.1411 12.6528C12.3805 12.6528 13.3852 11.6481 13.3852 10.4087C13.3852 9.16926 12.3805 8.16455 11.1411 8.16455ZM11.1411 11.5841C10.4919 11.5841 9.9656 11.0578 9.9656 10.4086C9.9656 9.75941 10.4919 9.23313 11.1411 9.23313C11.7903 9.23313 12.3166 9.75941 12.3166 10.4086C12.3166 11.0578 11.7903 11.5841 11.1411 11.5841Z" fill="#212121"/>
<path d="M20.0909 3.03517L5.50417 1.37884C4.93805 1.29836 4.36447 1.46363 3.92798 1.83303C3.49153 2.17144 3.21177 2.67308 3.15322 3.22222L2.88609 5.41292H2.05785C0.882348 5.41292 0.000721977 6.4548 0.000721977 7.6303V18.557C-0.0288854 19.6779 0.855809 20.6107 1.9768 20.6403C2.0038 20.641 2.03085 20.6412 2.05785 20.6408H16.7247C17.9002 20.6408 18.9689 19.7325 18.9689 18.557V18.1295C19.3333 18.0591 19.679 17.9135 19.984 17.7021C20.4169 17.3377 20.6941 16.8215 20.7588 16.2595L21.9877 5.41292C22.113 4.23471 21.2675 3.17482 20.0909 3.03517ZM17.9002 18.557C17.9002 19.1447 17.3125 19.5722 16.7247 19.5722H2.05785C1.52691 19.5878 1.08387 19.17 1.06828 18.639C1.06746 18.6117 1.06782 18.5843 1.06935 18.557V16.58L5.2103 13.5345C5.70774 13.1525 6.4084 13.1865 6.86668 13.6146L9.77869 16.1793C10.2209 16.5506 10.7776 16.7581 11.3549 16.767C11.8064 16.7726 12.2504 16.6523 12.6373 16.4197L17.9003 13.3741V18.557H17.9002ZM17.9002 12.1185L12.0762 15.5114C11.5761 15.8077 10.9431 15.754 10.5 15.3778L7.56125 12.7864C6.719 12.0627 5.48796 12.0183 4.5958 12.6795L1.06935 15.2442V7.6303C1.06935 7.04255 1.4701 6.48155 2.05785 6.48155H16.7247C17.3527 6.50757 17.8598 7.00318 17.9002 7.6303V12.1185ZM20.9201 5.26867C20.9198 5.27219 20.9195 5.27577 20.9191 5.2793L19.6634 16.1258C19.6656 16.4071 19.5373 16.6735 19.3161 16.8472C19.2092 16.954 18.9688 17.0075 18.9688 17.0609V7.6303C18.9266 6.41323 17.9422 5.44048 16.7247 5.41292H3.95467L4.19511 3.3291C4.24726 3.05926 4.38835 2.81473 4.59586 2.63447C4.83016 2.47248 5.11345 2.39695 5.39735 2.42073L19.9574 4.1038C20.5448 4.15959 20.9759 4.68112 20.9201 5.26867Z" fill="#212121"/>
</g>
<defs>
<clipPath id="clip0_102_72">
<rect width="22" height="22" fill="white"/>
</clipPath>
</defs>
</svg>
