<svg width="16" height="17" viewBox="0 0 16 17" fill="none" xmlns="http://www.w3.org/2000/svg">
<path fill-rule="evenodd" clip-rule="evenodd" d="M12.6026 4.6633V5.94108C14.0379 6.38909 15.0837 7.68841 15.0837 9.2403V13.3544C15.0837 15.2756 13.4909 16.8333 11.5272 16.8333H4.47432C2.50979 16.8333 0.916992 15.2756 0.916992 13.3544V9.2403C0.916992 7.68841 1.96362 6.38909 3.39806 5.94108V4.6633C3.40653 2.17895 5.46421 0.166626 7.98763 0.166626C10.5449 0.166626 12.6026 2.17895 12.6026 4.6633ZM8.00456 1.61583C9.72353 1.61583 11.1207 2.98222 11.1207 4.6633V5.76138H4.87993V4.64673C4.8884 2.97394 6.28559 1.61583 8.00456 1.61583ZM8.74126 12.2124C8.74126 12.6182 8.41101 12.9411 7.99609 12.9411C7.58964 12.9411 7.25939 12.6182 7.25939 12.2124V10.374C7.25939 9.97649 7.58964 9.65352 7.99609 9.65352C8.41101 9.65352 8.74126 9.97649 8.74126 10.374V12.2124Z" fill="#9E9E9E"/>
</svg>
