<svg width="134" height="101" viewBox="0 0 134 101" fill="none" xmlns="http://www.w3.org/2000/svg">
<path fill-rule="evenodd" clip-rule="evenodd" d="M66.3688 0.333252H27.754C11.6068 0.333252 0.333008 11.4605 0.333008 27.4068V73.2625C0.333008 89.2088 11.6068 100.336 27.754 100.336H66.3688C82.5161 100.336 93.7899 89.2088 93.7899 73.2625V27.4068C93.7899 11.4605 82.5161 0.333252 66.3688 0.333252ZM63.9404 40.3437C63.9404 41.1325 62.7792 42.951 60.4567 45.7993C58.1343 48.6476 54.6506 52.5037 50.0057 57.3677H63.8747C64.3567 57.3677 64.7511 58.025 65.0578 59.3396C65.4084 60.6103 65.5836 62.4289 65.5836 64.7951C65.5836 67.1176 65.2988 69.1771 64.7292 70.9737C64.2033 72.7703 63.4803 73.6686 62.5601 73.6686H30.5498C29.279 73.6686 28.3588 72.3978 27.7892 69.8563C27.2633 67.3148 27.0004 64.5541 27.0004 61.5744C27.0004 60.9171 28.2274 59.1205 30.6813 56.1846C33.1352 53.2486 36.8379 49.1515 41.7896 43.8931H29.038C27.8549 43.8931 27.2633 41.987 27.2633 38.1747C27.2633 35.5017 27.5482 32.982 28.1178 30.6158C28.6875 28.2057 29.4105 27.0007 30.2869 27.0007H60.5882C62.823 27.0007 63.9404 31.4484 63.9404 40.3437Z" fill="url(#paint0_linear_1333_17496)"/>
<path d="M120.053 16.1923C122.979 14.7032 126.413 14.8589 129.206 16.6187C132 18.3717 133.666 21.4175 133.666 24.7475V75.9232C133.666 79.26 132 82.299 129.206 84.052C127.679 85.0064 125.973 85.4937 124.253 85.4937C122.819 85.4937 121.386 85.1553 120.046 84.4717L110.172 79.4901C106.519 77.6356 104.252 73.913 104.252 69.7775V30.8864C104.252 26.7442 106.519 23.0216 110.172 21.1806L120.053 16.1923Z" fill="url(#paint1_linear_1333_17496)"/>
<defs>
<linearGradient id="paint0_linear_1333_17496" x1="133.666" y1="100.336" x2="-15.9646" y2="42.4921" gradientUnits="userSpaceOnUse">
<stop stop-color="#FF4D67"/>
<stop offset="1" stop-color="#FF8395"/>
</linearGradient>
<linearGradient id="paint1_linear_1333_17496" x1="133.666" y1="100.336" x2="-15.9646" y2="42.4921" gradientUnits="userSpaceOnUse">
<stop stop-color="#FF4D67"/>
<stop offset="1" stop-color="#FF8395"/>
</linearGradient>
</defs>
</svg>
