<svg width="61" height="61" viewBox="0 0 61 61" fill="none" xmlns="http://www.w3.org/2000/svg">
<path d="M60.667 23.6666V0.333313H37.3337L46.6437 9.64331L32.237 24.05C28.8631 21.6332 24.8172 20.3335 20.667 20.3333C9.63699 20.3333 0.666992 29.3033 0.666992 40.3333C0.666992 51.3633 9.63699 60.3333 20.667 60.3333C31.697 60.3333 40.667 51.3633 40.667 40.3333C40.667 36.02 39.2803 32.0333 36.9503 28.7633L51.357 14.3566L60.667 23.6666ZM20.667 53.6666C13.3137 53.6666 7.33366 47.6866 7.33366 40.3333C7.33366 32.98 13.3137 27 20.667 27C28.0203 27 34.0003 32.98 34.0003 40.3333C34.0003 47.6866 28.0203 53.6666 20.667 53.6666Z" fill="white"/>
</svg>
