<svg width="17" height="18" viewBox="0 0 17 18" fill="none" xmlns="http://www.w3.org/2000/svg">
<path d="M16.3631 1.15198C15.9463 0.724157 15.3294 0.564773 14.7541 0.732546L1.34032 4.63326C0.733408 4.80187 0.303231 5.2859 0.187351 5.90079C0.0689689 6.52658 0.482472 7.32098 1.02269 7.65317L5.21691 10.231C5.64709 10.4952 6.20231 10.429 6.55829 10.0699L11.3611 5.23724C11.6029 4.98558 12.003 4.98558 12.2448 5.23724C12.4866 5.48051 12.4866 5.87478 12.2448 6.12644L7.43365 10.96C7.07684 11.3182 7.01014 11.876 7.27275 12.3089L9.83547 16.5451C10.1356 17.0484 10.6525 17.3337 11.2194 17.3337C11.2861 17.3337 11.3611 17.3337 11.4278 17.3253C12.0781 17.2414 12.5949 16.7968 12.7867 16.1676L16.7633 2.77098C16.9384 2.20056 16.78 1.5798 16.3631 1.15198" fill="white"/>
</svg>
