<svg width="30" height="32" viewBox="0 0 30 32" fill="none" xmlns="http://www.w3.org/2000/svg">
<path fill-rule="evenodd" clip-rule="evenodd" d="M9.69874 4.85437C9.36414 5.30628 9.40257 5.95091 9.8253 6.36C10.2753 6.81 11.0103 6.81 11.4603 6.36L13.8453 3.96V10.17H16.1553V3.96L18.5403 6.36L18.6697 6.47157C19.1216 6.80628 19.7662 6.76909 20.1753 6.36C20.4003 6.135 20.5203 5.835 20.5203 5.535C20.5203 5.25 20.4003 4.95 20.1753 4.725L15.8103 0.345L15.6742 0.22272C15.4803 0.0768 15.2403 0 15.0003 0C14.6853 0 14.4003 0.12 14.1753 0.345L9.8103 4.725L9.69874 4.85437ZM6.34674 10.1777C2.81687 10.3444 0 13.3138 0 16.9312V24.3789L0.00725703 24.6976C0.171147 28.2899 3.09043 31.1703 6.675 31.1703H23.34L23.6533 31.1629C27.1831 30.9962 30 28.0264 30 24.3941V16.9617L29.9927 16.6417C29.828 13.0363 26.895 10.1703 23.325 10.1703H16.155V19.3273L16.1443 19.4883C16.0668 20.0664 15.5775 20.5024 15 20.5024C14.355 20.5024 13.845 19.9835 13.845 19.3273V10.1703H6.66L6.34674 10.1777Z" fill="white"/>
</svg>
