<svg width="18" height="14" viewBox="0 0 18 14" fill="none" xmlns="http://www.w3.org/2000/svg">
<path fill-rule="evenodd" clip-rule="evenodd" d="M4.09453 0.75H8.92124C10.9396 0.75 12.3488 2.14086 12.3488 4.13409V9.8659C12.3488 11.8591 10.9396 13.25 8.92124 13.25H4.09453C2.07617 13.25 0.666992 11.8591 0.666992 9.8659V4.13409C0.666992 2.14086 2.07617 0.75 4.09453 0.75ZM15.632 2.73249C15.9978 2.54636 16.427 2.56582 16.7762 2.78579C17.1253 3.00491 17.3337 3.38562 17.3337 3.80186V10.1986C17.3337 10.6157 17.1253 10.9956 16.7762 11.2147C16.5853 11.334 16.372 11.3949 16.157 11.3949C15.9778 11.3949 15.7986 11.3526 15.6311 11.2672L14.397 10.6445C13.9403 10.4127 13.657 9.94738 13.657 9.43046V4.5692C13.657 4.05144 13.9403 3.58612 14.397 3.35601L15.632 2.73249Z" fill="white"/>
</svg>
